<svg xmlns="http://www.w3.org/2000/svg" width="128" height="128" viewBox="0 0 128 128" role="img" aria-labelledby="t d">
  <!-- Copied by scripts/sync-brand-marks.mjs from `Dina Brand PM/logo-final/colour/svg/force-voice.svg`
       in the sibling dina-app repository. Do not edit here, and do not add this
       mark back to scripts/build-logos.mjs. -->
  <title id="t">Voice for Salesforce</title>
  <desc id="d">A rounded coral tile with a three-tone fan, carrying a white D and a voice waveform.</desc>
  <defs>
    <clipPath id="tile"><rect x="4" y="4" width="120" height="120" rx="28"/></clipPath>
  </defs>
  <g clip-path="url(#tile)"><rect x="4" y="4" width="120" height="120" fill="#f85a6d"/>
    <path d="M124 4L-153.1 164.0L-196.0 1.8Z" fill="#a2002f"/><path d="M124 4L-36.0 281.1L-154.2 162.1Z" fill="#cf314c"/><path d="M124 4L124.0 324.0L-37.9 280.0Z" fill="#f85a6d"/></g>
  <g transform="translate(64 64) scale(0.92) translate(-65 -64)">
    <path d="M26 24h34c26 0 44 16 44 40s-18 40-44 40H26V24Zm18 16v48h14c17 0 27-9 27-24s-10-24-27-24h-14Z" fill-rule="evenodd" fill="#fff"/>
    <g transform="translate(47 49) scale(1.25)"><g fill="none" stroke="#fff" stroke-width="2.6" stroke-linecap="round" stroke-linejoin="round" vector-effect="non-scaling-stroke"><path d="M4.5 10v4M8.2 6.4v11.2M12 3.4v17.2M15.8 6.4v11.2M19.5 10v4"/></g></g>
  </g>
</svg>
