<svg xmlns="http://www.w3.org/2000/svg" width="128" height="128" viewBox="0 0 128 128" role="img" aria-labelledby="t d">
  <!-- Copied by scripts/sync-brand-marks.mjs from `Dina Brand PM/logo-final/colour/svg/google-sheet.svg`
       in the sibling dina-app repository. Do not edit here, and do not add this
       mark back to scripts/build-logos.mjs. -->
  <title id="t">SheetConnect for Salesforce</title>
  <desc id="d">A rounded emerald tile with a three-tone fan, carrying a white D and a spreadsheet grid.</desc>
  <defs>
    <clipPath id="tile"><rect x="4" y="4" width="120" height="120" rx="28"/></clipPath>
  </defs>
  <g clip-path="url(#tile)"><rect x="4" y="4" width="120" height="120" fill="#44b678"/>
    <path d="M124 4L-153.1 164.0L-196.0 1.8Z" fill="#076b3e"/><path d="M124 4L-36.0 281.1L-154.2 162.1Z" fill="#0a9256"/><path d="M124 4L124.0 324.0L-37.9 280.0Z" fill="#44b678"/></g>
  <g transform="translate(64 64) scale(0.92) translate(-65 -64)">
    <path d="M26 24h34c26 0 44 16 44 40s-18 40-44 40H26V24Zm18 16v48h14c17 0 27-9 27-24s-10-24-27-24h-14Z" fill-rule="evenodd" fill="#fff"/>
    <g transform="translate(47 49) scale(1.25)"><g fill="none" stroke="#fff" stroke-width="2.6" stroke-linecap="round" stroke-linejoin="round" vector-effect="non-scaling-stroke"><path d="M3.6 4.2h16.8v15.6H3.6zM3.6 12h16.8M12 4.2v15.6"/></g></g>
  </g>
</svg>
