<svg xmlns="http://www.w3.org/2000/svg" width="256" height="256" viewBox="18 18 220 220" role="img" aria-labelledby="t d">
  <title id="t">DinaLab</title>
  <desc id="d">A neon blue letter D inside an open bracket frame, with two sparkles in the gap.</desc>
  <defs>
    <linearGradient id="neon" x1="40" y1="216" x2="216" y2="40" gradientUnits="userSpaceOnUse">
      <stop offset="0" stop-color="#7fdcff"/>
      <stop offset="0.5" stop-color="#0a63ff"/>
      <stop offset="1" stop-color="#5ec8ff"/>
    </linearGradient>
    <radialGradient id="glow" cx="0.46" cy="0.44" r="0.62">
      <stop offset="0" stop-color="#0a63ff" stop-opacity="0.34"/>
      <stop offset="1" stop-color="#0a63ff" stop-opacity="0"/>
    </radialGradient>
    <filter id="bloom" x="-50%" y="-50%" width="200%" height="200%">
      <feGaussianBlur stdDeviation="7"/>
    </filter>
    <filter id="markBloom" x="-50%" y="-50%" width="200%" height="200%">
      <feGaussianBlur stdDeviation="2.5"/>
    </filter>
  </defs>



  <g fill="none" stroke-linecap="round" stroke-linejoin="round">
    <g stroke="url(#neon)" opacity=".28" filter="url(#markBloom)">
      <path d="M150 44H88a40 40 0 0 0-40 40v80a40 40 0 0 0 40 40h80a40 40 0 0 0 40-40v-46" stroke-width="11"/>
      <path d="M88 76h34a49 49 0 0 1 0 98H88Z" stroke-width="11"/>
    </g>
    <g stroke="url(#neon)" opacity="1">
      <path d="M150 44H88a40 40 0 0 0-40 40v80a40 40 0 0 0 40 40h80a40 40 0 0 0 40-40v-46" stroke-width="8.5"/>
      <path d="M88 76h34a49 49 0 0 1 0 98H88Z" stroke-width="8.5"/>
    </g>
    <g stroke="#eaf7ff" opacity=".88">
      <path d="M150 44H88a40 40 0 0 0-40 40v80a40 40 0 0 0 40 40h80a40 40 0 0 0 40-40v-46" stroke-width="2"/>
      <path d="M88 76h34a49 49 0 0 1 0 98H88Z" stroke-width="2"/>
    </g>
  </g>
  <g fill="#5ec8ff">
    <path d="M184 38Q184 58 204 58Q184 58 184 78Q184 58 164 58Q184 58 184 38Z" fill="#0a63ff" opacity=".45" filter="url(#markBloom)"/>
    <path d="M209 76Q209 85 218 85Q209 85 209 94Q209 85 200 85Q209 85 209 76Z" fill="#0a63ff" opacity=".45" filter="url(#markBloom)"/>
    <path d="M184 38Q184 58 204 58Q184 58 184 78Q184 58 164 58Q184 58 184 38Z" fill="#eaf7ff"/>
    <path d="M209 76Q209 85 218 85Q209 85 209 94Q209 85 200 85Q209 85 209 76Z" fill="#eaf7ff"/>
  </g>
</svg>
